<?xml version="1.0" encoding="UTF-8"?>
<svg id="Layer_1" data-name="Layer 1" xmlns="http://www.w3.org/2000/svg" viewBox="0 0 22 22">
  <defs>
    <style>
      .cls-1 {
        fill: #fff;
      }
    </style>
  </defs>
  <path class="cls-1" d="m9.46,2.06l1.09.43c.39.15.82.15,1.21,0l1.09-.43c.64-.25,1.36-.25,1.99.02.64.26,1.15.76,1.42,1.4l.47,1.07c.17.38.47.69.85.85l1.07.47c.63.27,1.13.78,1.4,1.42.26.64.27,1.35.02,1.99l-.43,1.09c-.15.39-.15.82,0,1.21l.43,1.09c.25.64.25,1.35-.02,1.99-.26.64-.76,1.15-1.4,1.42l-1.07.47c-.38.17-.69.47-.85.85l-.47,1.07c-.27.63-.78,1.13-1.42,1.4-.64.26-1.35.27-1.99.02l-1.09-.43c-.39-.15-.82-.15-1.21,0l-1.09.43c-.64.25-1.36.25-1.99-.02-.64-.26-1.15-.76-1.42-1.4l-.47-1.07c-.17-.38-.47-.69-.85-.85l-1.07-.47c-.63-.27-1.13-.78-1.4-1.42-.26-.64-.27-1.35-.02-1.99l.43-1.09c.15-.39.15-.82,0-1.21l-.43-1.09c-.25-.64-.25-1.35.02-1.99.26-.64.76-1.15,1.4-1.42l1.07-.47c.38-.17.69-.47.85-.85l.47-1.07c.27-.63.78-1.13,1.42-1.4.64-.26,1.35-.27,1.99-.02h0Zm3.79,1.02l-1.09.43c-.65.25-1.37.25-2.01,0l-1.09-.43c-.38-.15-.79-.14-1.17.01-.37.15-.67.45-.83.82l-.47,1.07c-.28.64-.79,1.15-1.42,1.42l-1.07.47c-.37.16-.66.46-.82.83-.15.37-.16.79,0,1.17l.43,1.09c.25.65.25,1.37,0,2.01l-.43,1.09c-.31.78.06,1.67.83,2l1.07.47c.64.28,1.15.79,1.42,1.42l.47,1.07c.16.37.46.66.83.82.37.15.79.16,1.17,0l1.09-.43c.65-.25,1.37-.25,2.01,0l1.09.43c.78.31,1.67-.06,2-.83l.47-1.07c.28-.64.79-1.15,1.42-1.42l1.07-.47c.37-.16.66-.46.82-.83.15-.37.16-.79,0-1.17l-.43-1.09c-.25-.65-.25-1.37,0-2.01l.43-1.09c.15-.38.14-.79-.01-1.17-.15-.37-.45-.67-.82-.83l-1.07-.47c-.64-.28-1.15-.79-1.42-1.42l-.47-1.07c-.16-.37-.46-.66-.83-.82-.37-.15-.79-.16-1.17,0h0Zm-3.22,9.84l4.01-4.51c.09-.1.22-.16.35-.18.14-.01.27.02.38.11.11.08.19.2.21.33.03.13,0,.27-.07.39l-.06.08-4.4,4.95c-.09.1-.21.16-.34.18-.13.02-.27-.02-.38-.09l-.08-.07-2.2-2.2c-.1-.1-.16-.23-.16-.36,0-.14.04-.27.13-.38.09-.11.21-.17.35-.19.14-.02.27.01.39.09l.08.06,1.79,1.79Z"/>
</svg>