<?xml version="1.0" encoding="UTF-8"?>
<svg id="Layer_1" data-name="Layer 1" xmlns="http://www.w3.org/2000/svg" viewBox="0 0 22 22">
  <defs>
    <style>
      .cls-1 {
        fill: #fff;
      }
    </style>
  </defs>
  <path class="cls-1" d="m21.26,9.06l-1.2-3.01c-.09-.22-.24-.42-.44-.55-.2-.13-.43-.21-.68-.21h-3.14v-.86c0-.14-.05-.27-.15-.36-.1-.1-.23-.15-.36-.15H2.22c-.32,0-.63.13-.85.35-.23.23-.35.53-.35.85v9.62c0,.32.13.63.35.85.23.23.53.35.85.35h1.6c.12.58.43,1.11.89,1.48.46.38,1.04.58,1.63.58s1.17-.21,1.63-.58c.46-.38.78-.9.89-1.48h4.57c.12.58.43,1.11.89,1.48.46.38,1.04.58,1.63.58s1.17-.21,1.63-.58c.46-.38.78-.9.9-1.48h1.6c.32,0,.63-.13.85-.35.23-.23.35-.53.35-.85v-5.5c0-.07-.01-.13-.04-.19Zm-5.46-2.73h3.14s.07.01.1.03c.03.02.05.05.06.08l.92,2.3h-4.22v-2.41Zm-13.75-1.2s.02-.09.05-.12c.03-.03.08-.05.12-.05h12.55v5.84H2.05v-5.67Zm4.3,11.86c-.31,0-.61-.09-.86-.26-.25-.17-.45-.41-.57-.69-.12-.28-.15-.59-.09-.89.06-.3.21-.58.42-.79.22-.22.49-.36.79-.42.3-.06.61-.03.89.09.28.12.52.32.69.57s.26.55.26.86c0,.41-.16.8-.45,1.09-.29.29-.68.45-1.09.45Zm7.1-2.06h-4.57c-.12-.58-.43-1.11-.89-1.48-.46-.38-1.04-.58-1.63-.58s-1.17.21-1.63.58c-.46.38-.78.9-.89,1.48h-1.6s-.09-.02-.12-.05c-.03-.03-.05-.08-.05-.12v-2.92h12.72v1.33c-.34.18-.63.43-.86.73-.23.3-.39.66-.46,1.03Zm2.53,2.06c-.31,0-.6-.09-.86-.26-.25-.17-.45-.41-.57-.69-.12-.28-.15-.59-.09-.89.06-.3.21-.58.42-.79s.49-.36.79-.42c.3-.06.61-.03.89.09.28.12.52.32.69.57s.26.55.26.86c0,.41-.16.8-.45,1.09-.29.29-.68.45-1.09.45Zm4.3-2.23s-.02.09-.05.12c-.03.03-.08.05-.12.05h-1.6c-.12-.58-.44-1.1-.9-1.48-.46-.38-1.04-.58-1.63-.58-.06,0-.12,0-.17,0v-3.1h4.47v4.98Z"/>
</svg>