<?xml version="1.0" encoding="UTF-8"?>
<svg id="Layer_1" data-name="Layer 1" xmlns="http://www.w3.org/2000/svg" viewBox="0 0 22 22">
  <defs>
    <style>
      .cls-1 {
        fill: #fff;
        stroke: #fff;
        stroke-width: .2px;
      }
    </style>
  </defs>
  <path class="cls-1" d="m11.09,16.98l.07.06.07-.07.09-.09c2.18-1.97,3.99-3.62,5.26-5.1,1.27-1.48,2.01-2.82,2.01-4.18,0-1.89-1.42-3.31-3.31-3.31-1.43,0-2.82.91-3.34,2.16h-1.57c-.52-1.25-1.91-2.16-3.34-2.16-1.89,0-3.31,1.42-3.31,3.31,0,1.36.74,2.7,2.01,4.18,1.27,1.48,3.08,3.13,5.26,5.1h0s0,0,0,0l.1.09Zm0-12.45l.08.09.08-.09c.98-1.14,2.48-1.87,4.05-1.87,2.77,0,4.94,2.16,4.94,4.94,0,1.7-.76,3.25-2.13,4.91-1.36,1.67-3.32,3.44-5.68,5.58h0s-1.26,1.15-1.26,1.15l-1.26-1.15h0c-2.36-2.14-4.32-3.92-5.68-5.58-1.36-1.67-2.13-3.22-2.13-4.91,0-2.78,2.17-4.94,4.94-4.94,1.56,0,3.07.73,4.05,1.87Z"/>
</svg>