<?xml version="1.0" encoding="UTF-8"?>
<svg id="Layer_1" data-name="Layer 1" xmlns="http://www.w3.org/2000/svg" xmlns:xlink="http://www.w3.org/1999/xlink" viewBox="0 0 85.72 30.86">
  <defs>
    <style>
      .cls-1 {
        fill: url(#linear-gradient-2);
      }

      .cls-2, .cls-3 {
        fill: #fff;
      }

      .cls-3 {
        stroke: #010101;
        stroke-linecap: round;
        stroke-width: .51px;
      }

      .cls-4 {
        fill: url(#radial-gradient);
      }

      .cls-5 {
        fill: url(#linear-gradient-5);
      }

      .cls-6 {
        fill: #8b1826;
      }

      .cls-7 {
        fill: url(#linear-gradient-3);
      }

      .cls-8 {
        fill: url(#linear-gradient);
      }

      .cls-9 {
        fill: url(#linear-gradient-4);
      }

      .cls-10 {
        fill: #010101;
      }
    </style>
    <linearGradient id="linear-gradient" x1="-555.74" y1="-92.11" x2="-555.29" y2="-92.93" gradientTransform="translate(19416.93 -3325.12) scale(34.92 -36.13)" gradientUnits="userSpaceOnUse">
      <stop offset="0" stop-color="#656668"/>
      <stop offset=".1" stop-color="#727375"/>
      <stop offset=".32" stop-color="#898b8d"/>
      <stop offset=".54" stop-color="#9a9b9d"/>
      <stop offset=".77" stop-color="#a4a4a6"/>
      <stop offset="1" stop-color="#a8a8aa"/>
    </linearGradient>
    <linearGradient id="linear-gradient-2" x1="-556.86" y1="-92.3" x2="-557.45" y2="-92.67" gradientTransform="translate(19363.53 -3325.12) scale(34.74 -36.13)" gradientUnits="userSpaceOnUse">
      <stop offset="0" stop-color="#c7c7c8"/>
      <stop offset=".09" stop-color="#dcdddd"/>
      <stop offset=".2" stop-color="#f1f0f0"/>
      <stop offset=".32" stop-color="#fbfcfc"/>
      <stop offset=".43" stop-color="#fff"/>
      <stop offset=".54" stop-color="#f6f7f7"/>
      <stop offset=".7" stop-color="#e0dfe0"/>
      <stop offset=".91" stop-color="#bababb"/>
      <stop offset="1" stop-color="#a8a8aa"/>
    </linearGradient>
    <linearGradient id="linear-gradient-3" x1="-577.39" y1="-75.69" x2="-578.07" y2="-76.14" gradientTransform="translate(18578.31 -2505.99) scale(32.14 -33.19)" gradientUnits="userSpaceOnUse">
      <stop offset="0" stop-color="#4c4c4e"/>
      <stop offset=".01" stop-color="#4e4e50"/>
      <stop offset=".25" stop-color="#68696a"/>
      <stop offset=".5" stop-color="#7a7b7d"/>
      <stop offset=".74" stop-color="#838486"/>
      <stop offset="1" stop-color="#88888a"/>
    </linearGradient>
    <linearGradient id="linear-gradient-4" x1="-636.22" y1="-19.02" x2="-635.52" y2="-19.53" gradientTransform="translate(16888.34 -486.03) scale(26.53 -25.94)" gradientUnits="userSpaceOnUse">
      <stop offset="0" stop-color="#8b1826"/>
      <stop offset=".61" stop-color="#cb1f36"/>
      <stop offset=".71" stop-color="#cb1f36"/>
      <stop offset="1" stop-color="#8a1a40"/>
    </linearGradient>
    <radialGradient id="radial-gradient" cx="-8032.57" cy="5261.8" fx="-8032.57" fy="5261.8" r="20.13" gradientTransform="translate(-358.18 -774.05) scale(.98 -.98)" gradientUnits="userSpaceOnUse">
      <stop offset="0" stop-color="#cb1f36"/>
      <stop offset=".46" stop-color="#cb1f36"/>
      <stop offset="1" stop-color="#8a1a40"/>
    </radialGradient>
    <linearGradient id="linear-gradient-5" x1="-972.52" y1="-19.53" x2="-971.28" y2="-18.8" gradientTransform="translate(12872.89 -480.33) scale(13.24 -25.92)" xlink:href="#linear-gradient-4"/>
  </defs>
  <g id="McAfee_Secure" data-name="McAfee Secure">
    <path id="Path_29" data-name="Path 29" class="cls-8" d="m14.86,30.86S-1.8,25.21.16,2.14C4.95.85,9.9.09,14.86,0c5.04.09,10,.77,14.79,2.14,1.97,22.99-14.79,28.72-14.79,28.72Z"/>
    <path id="Path_30" data-name="Path 30" class="cls-1" d="m14.86,30.86S-1.8,25.21.16,2.14C4.95.85,9.9.09,14.86,0c5.04.09,10,.77,14.79,2.14l-1.54,1.37-13.25,25.9v1.45Z"/>
    <path id="Path_31" data-name="Path 31" class="cls-3" d="m14.86,29.4S-.18,24.27,1.53,3.33c4.36-1.2,8.8-1.88,13.33-1.97,4.53.09,9.06.77,13.42,1.97,1.71,20.86-13.42,26.07-13.42,26.07Z"/>
    <g id="Group_9" data-name="Group 9">
      <path id="Path_32" data-name="Path 32" class="cls-2" d="m14.86,29.4S-.18,24.27,1.53,3.33c4.36-1.2,8.8-1.88,13.33-1.97,4.53.09,9.06.77,13.42,1.97,1.71,20.86-13.42,26.07-13.42,26.07Z"/>
    </g>
    <path id="Path_33" data-name="Path 33" class="cls-7" d="m1.44,3.08h-.17v.17c-.85,10.94,2.82,17.52,6.15,21.11,2.05,2.31,4.62,4.1,7.44,5.21l.09.09h.09c2.82-1.11,5.38-2.91,7.44-5.21,3.25-3.59,7.01-10.17,6.07-21.03v-.26h-.17c-4.36-1.2-8.89-1.79-13.42-1.88-4.53.09-9.06.68-13.5,1.79Zm13.68-1.62c4.36.09,8.8.77,13.08,1.88.09,1.03.09,2.31.09,3.25,0,8.8-3.25,14.36-6.15,17.52-1.97,2.22-4.44,4.02-7.27,5.13-2.74-1.11-5.21-2.91-7.27-5.13C4.78,20.94,1.53,15.47,1.53,6.58c0-.94.09-2.22.17-3.25,1.03-.09,7.27-1.88,13.42-1.88Z"/>
    <path id="Path_34" data-name="Path 34" class="cls-9" d="m14.86,26.75S2.21,22.14,3.67,4.62c0,0,5.56.43,11.2.43s11.11-.43,11.28-.43c1.45,17.52-11.28,22.14-11.28,22.14Z"/>
    <path id="Path_35" data-name="Path 35" class="cls-4" d="m14.86,25.3S3.92,21.28,5.2,6.15c0,0,4.79.34,9.66.34s9.57-.34,9.74-.34c1.28,15.04-9.74,19.06-9.74,19.15Z"/>
    <path id="Path_36" data-name="Path 36" class="cls-6" d="m26.14,4.62c-.17,0-5.64.43-11.28.43s-11.2-.43-11.2-.43l1.54,1.54s4.79.34,9.66.34,9.57-.43,9.74-.43l1.54-1.45Z"/>
    <path id="Path_37" data-name="Path 37" class="cls-5" d="m14.86,26.75S2.21,22.14,3.67,4.62l1.54,1.54c-1.2,15.13,9.66,19.15,9.66,19.15v1.45Z"/>
    <g id="Group_11" data-name="Group 11">
      <g id="Group_10" data-name="Group 10">
        <path id="Path_38" data-name="Path 38" class="cls-2" d="m8.11,19.23l1.79-11.8h2.99l3.76,11.8h-3.16l-1.62-6.07-.94,6.07h-2.82Z"/>
      </g>
    </g>
    <g id="Group_13" data-name="Group 13">
      <g id="Group_12" data-name="Group 12">
        <path id="Path_39" data-name="Path 39" class="cls-2" d="m17.08,7.44h2.99l1.71,11.8h-2.82l-1.03-6.15-1.03,4.79-1.54-4.79,1.71-5.64Z"/>
      </g>
    </g>
    <g id="Group_14" data-name="Group 14">
      <path id="Path_40" data-name="Path 40" class="cls-10" d="m42.21,13.16h-2.22l-2.14-5.47-.77,5.47h-2.48l1.62-10.17h2.39l3.59,10.17Zm-1.62-5.21l1.79-4.96h2.48l1.45,10.17h-2.48l-.68-5.47-1.45,3.25-1.11-2.99Z"/>
      <path id="Path_41" data-name="Path 41" class="cls-10" d="m55.55,11.37l-.6,1.71h-2.48l3.42-10.17h2.56l3.33,10.17h-2.48l-.6-1.71s-3.16,0-3.16,0Zm1.62-5.3l-1.03,3.25h1.97l-.94-3.25Z"/>
      <path id="Path_42" data-name="Path 42" class="cls-10" d="m74.18,10.09h-4.79c0,1.03.51,1.54,1.37,1.54.43,0,.85-.17,1.11-.6h2.14c-.17.77-.6,1.37-1.2,1.79s-1.28.6-2.05.6c-1.88.17-3.5-1.28-3.68-3.16v-.51c-.17-1.88,1.2-3.5,3.08-3.68h.43c2.22,0,3.5,1.54,3.5,3.85,0,0,.09.17.09.17Zm-2.05-1.45c-.09-.6-.68-1.11-1.28-1.11-.68,0-1.2.43-1.37,1.11h2.65Z"/>
      <path id="Path_43" data-name="Path 43" class="cls-10" d="m81.96,10.09h-4.79c0,1.03.51,1.54,1.45,1.54.43,0,.85-.17,1.11-.6h2.14c-.17.77-.6,1.37-1.2,1.79s-1.28.6-2.05.6c-1.88.17-3.59-1.28-3.68-3.16v-.51c-.17-1.88,1.2-3.5,3.08-3.68h.51c2.22,0,3.5,1.54,3.5,3.85,0,0-.09.17-.09.17Zm-2.05-1.45c-.09-.6-.68-1.11-1.28-1.11-.68,0-1.2.43-1.37,1.11h2.65Z"/>
      <path id="Path_44" data-name="Path 44" class="cls-10" d="m82.3,4.87c0-.94.77-1.71,1.71-1.71s1.71.77,1.71,1.71-.77,1.71-1.71,1.71-1.71-.68-1.71-1.71Zm.26,0c0,.77.68,1.45,1.45,1.45s1.45-.68,1.45-1.45-.68-1.45-1.45-1.45-1.45.6-1.45,1.45Zm2.31.94h-.34l-.51-.85h-.34v.85h-.26v-1.88h.77c.34,0,.68.09.68.51,0,.26-.17.51-.43.51h-.17s.6.85.6.85Zm-1.2-1.62v.51h.34c.26,0,.6,0,.6-.26s-.17-.26-.43-.26h-.51Z"/>
    </g>
    <g id="Group_15" data-name="Group 15">
      <path id="Path_45" data-name="Path 45" class="cls-10" d="m62.64,7.95h-1.28v-1.71h1.37v-.77c0-2.05.94-2.74,2.74-2.74.43,0,.77.09,1.11.09l-.09,1.62c-.26-.09-.43-.09-.68-.09-.6,0-.77.43-.77,1.11v.77h1.62v1.71h-1.71v5.21h-2.31s0-5.21,0-5.21Z"/>
    </g>
    <g id="Group_16" data-name="Group 16">
      <path id="Path_46" data-name="Path 46" class="cls-10" d="m39.65,18.03c-.6-.26-1.2-.43-1.79-.43-.77,0-1.71.26-1.71,1.28,0,1.79,4.27,1.37,4.27,4.53,0,2.05-1.62,2.91-3.59,2.91-.68,0-1.37-.17-1.97-.43l.17-1.28c.68.26,1.37.43,2.05.51.77,0,1.88-.43,1.88-1.62,0-2.14-4.19-1.62-4.19-4.53,0-1.71,1.45-2.56,3.16-2.56.68,0,1.45.17,2.14.34,0,0-.43,1.28-.43,1.28Z"/>
      <path id="Path_47" data-name="Path 47" class="cls-10" d="m42.3,16.58h5.56v1.2h-4.1v2.82h3.76v1.2h-3.76v3.16h4.1v1.2h-5.56v-9.57Z"/>
      <path id="Path_48" data-name="Path 48" class="cls-10" d="m56.32,18.12c-.6-.34-1.28-.51-2.05-.51-2.05,0-3.76,1.62-3.76,3.68s1.62,3.76,3.68,3.76c.77,0,1.45-.17,2.14-.51l.09,1.28c-.68.26-1.45.43-2.22.43-3.08,0-5.21-1.97-5.21-5.04,0-2.91,2.22-4.96,5.21-4.96.77,0,1.54.09,2.22.43,0,0-.09,1.45-.09,1.45Z"/>
      <path id="Path_49" data-name="Path 49" class="cls-10" d="m65.29,22.14c0,2.74-1.45,4.1-3.85,4.1s-3.85-1.45-3.85-4.1v-5.56h1.37v5.47c0,1.79.6,3.08,2.39,3.08s2.39-1.28,2.39-3.08v-5.47h1.45l.09,5.56Z"/>
      <path id="Path_50" data-name="Path 50" class="cls-10" d="m67.51,16.58h2.39c1.97,0,3.85.34,3.85,2.56,0,1.11-.94,2.05-2.05,2.14.43.17.6.34.94.94l1.88,3.85h-1.62l-1.54-3.33c-.43-.94-.94-.94-1.62-.94h-.85v4.27h-1.37s0-9.49,0-9.49Zm1.37,4.1h1.2c1.37,0,2.14-.6,2.14-1.54,0-.85-.68-1.45-1.97-1.45h-1.37v2.99Z"/>
      <path id="Path_51" data-name="Path 51" class="cls-10" d="m76.15,16.58h5.56v1.2h-4.1v2.82h3.76v1.2h-3.76v3.16h4.1v1.2h-5.56v-9.57Z"/>
    </g>
    <path id="Path_52" data-name="Path 52" class="cls-10" d="m51.96,8.38c-.43-.26-.85-.43-1.37-.43-.94,0-1.71.77-1.71,1.71v.17c0,.94.77,1.79,1.79,1.79h.09c.51,0,.94-.09,1.45-.34v1.71c-.6.26-1.2.34-1.79.34-1.97.17-3.59-1.28-3.76-3.25v-.34c-.09-1.97,1.45-3.59,3.42-3.59h.34c.6,0,1.2.09,1.71.43,0,0-.17,1.79-.17,1.79Z"/>
  </g>
</svg>