<?xml version="1.0" encoding="UTF-8"?>
<svg id="Layer_1" data-name="Layer 1" xmlns="http://www.w3.org/2000/svg" viewBox="0 0 80.33 31.07">
  <defs>
    <style>
      .cls-1 {
        fill: #989798;
      }

      .cls-2 {
        fill-rule: evenodd;
      }

      .cls-2, .cls-3 {
        fill: #161717;
      }

      .cls-4 {
        fill: #f6b519;
      }
    </style>
  </defs>
  <path class="cls-2" d="m30.96,7.22c.95,0,1.9,0,2.85,0l3.8,7.34v-7.35h2.28v11.63h-2.51s-4.15-8.26-4.15-8.26v8.26h-2.28V7.22h0Z"/>
  <path class="cls-2" d="m65.65,10.05c2.47,0,4.47,2,4.47,4.47s-2,4.47-4.47,4.47-4.47-2-4.47-4.47,2-4.47,4.47-4.47h0Zm0,2.25c1.22,0,2.22.99,2.22,2.22s-.99,2.22-2.22,2.22-2.22-.99-2.22-2.22.99-2.22,2.22-2.22h0Z"/>
  <path class="cls-2" d="m45.07,10.05c2.47,0,4.47,2,4.47,4.47s-2,4.47-4.47,4.47-4.47-2-4.47-4.47,2-4.47,4.47-4.47h0Zm0,2.25c1.22,0,2.22.99,2.22,2.22s-.99,2.22-2.22,2.22-2.22-.99-2.22-2.22.99-2.22,2.22-2.22h0Z"/>
  <path class="cls-2" d="m50.28,10.31v8.55h2.54v-4.03c0-.35.06-.58.17-.92.23-.69.63-1.27,1.31-1.66.35-.2.39-.2.78-.2h1.6v4.63c.08,2.54,2.69,2.61,4.6,2.09-.11-.57-.21-1.13-.32-1.7-1.09.25-1.87.32-1.87-1.04v-3.98h1.83v-1.8h-1.77v-2.41h-2.02c-.19.8-.39,1.61-.58,2.41h-1.4c-.61,0-1.15.16-1.66.52-.44.3-.78.74-.99,1.34-.25-.59-.49-1.18-.74-1.77-.49,0-.98-.02-1.48-.03h0Z"/>
  <path class="cls-2" d="m70.74,10.26v8.63h2.41v-5.71c0-.8,1.93-1.52,2.73-.53.21.26.19.33.19.64v5.56h2.45v-5.95c0-.68-.32-1.33-.74-1.86-.61-.77-1.48-1.11-2.74-.88-.85.16-1.53.65-2.32,1.44-.17-.44-.34-.88-.51-1.32-.49,0-.98-.01-1.47-.02h0Z"/>
  <path class="cls-3" d="m78.99,10.44h.29v-.2h-.78v.2h.29v.93h.2v-.93h0Zm1.33-.2h-.29l-.17.89h0l-.17-.89h-.3v1.13h.19v-.94h0l.18.94h.2l.18-.94h0v.94h.19v-1.13h0Z"/>
  <path class="cls-4" d="m13.45,31.07c-7.42,0-13.45-6.03-13.45-13.45S6.04,4.16,13.45,4.16s13.45,6.04,13.45,13.45-6.03,13.45-13.45,13.45h0Zm0-22.65h0c-2.45,0-4.76.96-6.5,2.69-1.74,1.74-2.69,4.05-2.69,6.5s.96,4.77,2.69,6.5c1.74,1.74,4.05,2.69,6.5,2.69s4.77-.96,6.51-2.69c1.74-1.74,2.69-4.05,2.69-6.5s-.96-4.77-2.69-6.5c-1.74-1.74-4.05-2.69-6.51-2.69h0Z"/>
  <rect class="cls-4" x="28.11" y="2.09" width="1.05" height="1.05"/>
  <rect class="cls-4" x="28.11" width="1.05" height="1.05"/>
  <rect class="cls-4" x="25.16" y="3.13" width=".98" height="1.02"/>
  <rect class="cls-3" x="23.22" y="5.14" width=".99" height=".98"/>
  <rect class="cls-3" x="26.14" y="4.16" width="1.1" height=".99"/>
  <rect class="cls-3" x="22.23" y="4.21" width=".98" height=".94"/>
  <rect class="cls-3" x="25.16" y="5.14" width=".98" height=".98"/>
  <rect class="cls-3" x="27.08" y="1.05" width="1.04" height="1.04"/>
  <rect class="cls-3" x="25.16" y="2.09" width="1.92" height="1.04"/>
  <rect class="cls-3" x="24.21" y="3.13" width=".95" height="2.01"/>
  <path class="cls-3" d="m24.21,6.12v.99h-.99v-.99h-1.64v.71h-.88v.88h.98v.98h-.98v-.98h-1.04v1.54h-.99v.98h-.66v.98h-.72c-.81,1.2-2.83,4.95-3.45,6.47-2.21-3.07-3.92-4.29-5.27-4.73-.73-.22-1.61.57-.4,1.82,2.77,3.05,3.65,5.58,4.49,7.6.45,1.06,2.45,1.23,2.85.15.85-2.29,2.09-4.86,3.56-6.98v-1.09h.78v-.99h.82v-1.14h.98v-1.1h-.99v-1h.99v1h.97v-.99s.78,0,.78,0v-1.2h.88v-.82h.85v-2.08h-.96Z"/>
  <path class="cls-1" d="m42.1,26.8l-.28.44c.21.16.51.34.89.47.32.11.71.18,1.14.18.68,0,1.2-.17,1.56-.46.37-.3.56-.74.56-1.26,0-.55-.21-.93-.53-1.22-.34-.3-.81-.5-1.34-.7h0c-.49-.18-.82-.33-1.05-.52-.24-.2-.34-.44-.34-.76s.09-.57.31-.76c.21-.18.53-.28,1-.28.38,0,.69.06.95.14.21.07.38.15.52.23l.22-.48c-.2-.11-.41-.21-.66-.28-.28-.08-.62-.13-1.06-.13-.63,0-1.1.15-1.41.41-.34.28-.51.68-.51,1.13,0,.53.18.9.49,1.18.31.29.74.48,1.22.67.47.18.84.34,1.1.54.27.22.42.48.42.87,0,.36-.14.64-.39.83-.25.19-.61.29-1.04.29s-.77-.08-1.08-.2c-.26-.1-.49-.23-.69-.36h0Z"/>
  <path class="cls-1" d="m46.38,23.31h.69l1.23,3.98,1.18-3.98h.66l-1.6,5.05c-.26.82-.69,1.26-1.52,1.26-.17,0-.36-.04-.5-.09l.08-.5c.1.02.22.05.37.05.55,0,.88-.33,1.04-.87l-1.63-4.9h0Z"/>
  <path class="cls-1" d="m55.75,23.23c.92,0,1.15.77,1.15,1.52v3.19h-.67v-3.18c0-.49-.08-.95-.69-.95-.42,0-.85.26-1.29.71v3.43h-.67v-3.18c0-.49-.07-.95-.69-.95-.43,0-.87.3-1.29.71v3.42h-.67v-4.62h.38l.19.76c.43-.45.95-.84,1.58-.84s.86.33,1.05.81c.44-.47.99-.81,1.59-.81h0Z"/>
  <path class="cls-1" d="m60.69,25.49c-1.01.19-1.67.41-1.92.72-.12.15-.16.29-.16.5,0,.47.23.76.78.76s.98-.28,1.3-.52v-1.46h0Zm0-.68c0-.68-.2-1.02-.93-1.02-.47,0-.9.2-1.31.42l-.25-.45c.43-.3.93-.52,1.62-.52,1.12,0,1.54.62,1.54,1.63v3.08h-.38s-.2-.56-.2-.56c-.32.32-.84.64-1.44.64-.8,0-1.4-.51-1.4-1.27,0-.51.2-.87.65-1.13.43-.25,1.19-.43,2.11-.57v-.23h0Z"/>
  <path class="cls-1" d="m62.83,23.31h.38l.19.79c.43-.48.97-.87,1.67-.87.98,0,1.24.77,1.24,1.52v3.19h-.66v-3.18c0-.49-.11-.95-.78-.95-.47,0-.96.3-1.38.74v3.39h-.67v-4.62h0Z"/>
  <path class="cls-1" d="m67.24,23.79v-.48h.71l.19-1.32h.45v1.32h1.04v.48h-1.04v3.01c0,.45.08.7.52.7.19,0,.32-.04.54-.1l.1.46c-.17.09-.42.15-.67.15-.81,0-1.15-.41-1.15-1.17v-3.05h-.7Z"/>
  <path class="cls-1" d="m73.28,25.33c-.04-1.05-.39-1.59-1.08-1.59-.63,0-1.06.5-1.12,1.59h2.2Zm-.97,2.14c.54,0,.87-.19,1.27-.46l.29.39c-.44.38-.85.61-1.61.61-1.15,0-1.89-.93-1.89-2.39s.72-2.39,1.82-2.39,1.77.83,1.77,2.43v.15h-2.9c.05,1.08.41,1.67,1.24,1.67h0Z"/>
  <path class="cls-1" d="m74.78,25.66c0-1.13.46-2.43,1.88-2.43.59,0,1.04.16,1.41.48l-.28.45c-.29-.22-.69-.39-1.14-.39-1.06,0-1.17,1.12-1.17,1.91,0,.74.15,1.8,1.21,1.8.49,0,.83-.18,1.15-.46l.31.38c-.31.33-.8.62-1.5.62-1.38,0-1.88-1.24-1.88-2.35h0Z"/>
  <path class="cls-1" d="m35.31,23.31h.69l1.23,3.98,1.18-3.98h.66l-1.6,5.05c-.26.82-.69,1.26-1.52,1.26-.17,0-.36-.04-.5-.09l.08-.5c.1.02.22.05.37.05.55,0,.88-.33,1.04-.87l-1.63-4.9h0Z"/>
  <path class="cls-1" d="m34.06,25.12c.01.1.02.19.03.29,0,.1,0,.2,0,.29,0,.06,0,.12,0,.18,0,.06,0,.11-.01.17,0,.06-.02.11-.03.17,0,.05-.02.11-.04.16-.01.05-.03.1-.05.15-.02.05-.03.1-.06.14-.02.05-.04.09-.06.13-.03.04-.05.08-.08.12h0s-.05.07-.08.1c-.03.04-.06.07-.1.1-.03.03-.07.06-.1.08-.04.02-.07.05-.11.07h0s-.08.04-.12.06c-.04.01-.09.03-.13.04s-.09.02-.14.02c-.05,0-.1,0-.15,0-.04,0-.07,0-.1,0-.03,0-.07,0-.1-.01-.03,0-.06-.01-.09-.02h0s-.05-.01-.07-.02h0s0,0,0,0c-.03,0-.06-.02-.09-.03-.03,0-.06-.02-.08-.04h0s-.05-.02-.08-.04c-.03-.01-.05-.03-.07-.04h0s0,0,0,0c-.02-.01-.04-.03-.07-.04-.02-.02-.04-.03-.06-.05h0s-.04-.03-.06-.05c-.02-.02-.04-.03-.05-.05l-.05-.05s-.03-.03-.04-.05c-.01-.02-.03-.03-.04-.05-.01-.02-.02-.03-.03-.05h0s0,0,0,0v-2.4h0s0,0,0,0c.04-.04.07-.07.11-.1.04-.03.08-.06.12-.09h0s.08-.06.13-.08c.04-.03.09-.05.14-.08s.1-.04.14-.06c.05-.02.1-.03.15-.04.05,0,.1-.02.15-.03.05,0,.11,0,.16,0,.04,0,.07,0,.1,0s.07,0,.11.01c.04,0,.07.01.1.02.04,0,.07.02.11.03.04,0,.07.02.1.04.03.02.07.04.1.06.03.02.07.04.1.07.03.03.07.05.1.08.03.03.06.07.09.1s.06.07.08.11.05.09.07.13c.02.05.04.1.06.15.02.05.04.11.05.18.01.07.03.15.04.24h0Zm.66,1.07c.01-.09.02-.17.03-.26s0-.19,0-.29c0-.08,0-.17,0-.26,0-.09,0-.18-.02-.26,0-.08-.01-.16-.03-.23,0-.07-.02-.12-.03-.17-.01-.06-.03-.11-.04-.16-.02-.05-.04-.1-.05-.14-.02-.05-.04-.09-.06-.13-.02-.04-.05-.09-.07-.12-.02-.04-.05-.08-.07-.11s-.05-.07-.08-.1c-.03-.03-.05-.06-.08-.09s-.06-.06-.09-.09-.06-.05-.09-.08c-.03-.02-.07-.05-.1-.07-.03-.02-.07-.04-.1-.06h0s-.07-.04-.1-.05c-.03-.02-.07-.03-.1-.05-.03-.01-.07-.03-.1-.04-.03-.01-.07-.02-.1-.03-.04,0-.07-.02-.1-.02-.03,0-.07,0-.1-.02-.03,0-.06,0-.1-.01-.03,0-.06,0-.09,0h-.09c-.06,0-.12,0-.18,0-.06,0-.12.01-.18.03-.06,0-.11.02-.16.04-.06.02-.1.04-.15.06-.05.02-.1.05-.14.07-.05.03-.09.06-.13.09-.04.03-.09.07-.12.1-.04.04-.08.08-.12.11h0s0,0,0,0h-.05v-2.44h-.64v6.38h.48l.14-.45h0v-.02h.05s0,.01,0,.01c0,0,.01.02.02.03h0s.02.02.03.04h0s.02.03.03.04h0s.03.03.04.05c.01.02.03.03.05.05s.03.03.05.05c.02.02.04.03.06.05h0s.04.03.07.05h0s.05.03.07.04c.03.02.05.03.08.04s.06.03.09.04h0s.06.02.09.03h.01s.07.02.1.03c.04,0,.07.01.11.02s.08,0,.12.01c.04,0,.09,0,.13,0,.06,0,.12,0,.18,0,.06,0,.11-.02.17-.03.06-.01.11-.03.17-.04.06-.02.11-.04.16-.06h0c.06-.02.11-.05.16-.08.05-.03.1-.06.15-.09.05-.04.1-.07.14-.11.05-.04.09-.09.13-.13h0s.08-.1.12-.15c.04-.05.08-.11.11-.17.03-.06.07-.12.1-.19.03-.06.06-.13.09-.2.03-.07.05-.14.07-.22.02-.08.04-.16.05-.24h0Z"/>
</svg>