<?xml version="1.0" encoding="UTF-8"?>
<svg id="Layer_1" data-name="Layer 1" xmlns="http://www.w3.org/2000/svg" xmlns:xlink="http://www.w3.org/1999/xlink" viewBox="0 0 19.2 19.2">
  <defs>
    <style>
      .cls-1 {
        fill: #fff;
      }

      .cls-2 {
        fill: #dad9d9;
      }

      .cls-3 {
        mask: url(#mask);
      }
    </style>
    <mask id="mask" x="-4.8" y="-4.8" width="28.8" height="28.8" maskUnits="userSpaceOnUse">
      <g id="mask0_1_121" data-name="mask0 1 121">
        <rect class="cls-2" x="-4.8" y="-4.8" width="28.8" height="28.8"/>
      </g>
    </mask>
  </defs>
  <g class="cls-3">
    <path class="cls-1" d="m4.2,8.4c-1.16,0-2.15-.41-2.97-1.23-.82-.82-1.23-1.81-1.23-2.97S.41,2.05,1.23,1.23c.82-.82,1.81-1.23,2.97-1.23s2.15.41,2.97,1.23c.82.82,1.23,1.81,1.23,2.97s-.41,2.15-1.23,2.97c-.82.82-1.81,1.23-2.97,1.23Zm0-2.4c.5,0,.93-.18,1.28-.52s.52-.78.52-1.28-.18-.93-.52-1.27c-.35-.35-.78-.53-1.28-.53s-.93.18-1.27.53c-.35.35-.53.78-.53,1.27s.18.93.53,1.28c.35.35.78.52,1.27.52Zm10.8,13.2c-1.16,0-2.15-.41-2.97-1.23-.82-.82-1.23-1.81-1.23-2.97s.41-2.15,1.23-2.97,1.81-1.23,2.97-1.23,2.15.41,2.97,1.23c.82.82,1.23,1.81,1.23,2.97s-.41,2.15-1.23,2.97c-.82.82-1.81,1.23-2.97,1.23Zm0-2.4c.5,0,.93-.18,1.28-.53s.53-.78.53-1.28-.18-.93-.53-1.28c-.35-.35-.78-.52-1.28-.52s-.93.18-1.28.52c-.35.35-.52.78-.52,1.28s.18.93.52,1.28c.35.35.78.53,1.28.53Zm-14.16,1.56c-.22-.22-.33-.5-.33-.84s.11-.62.33-.84L16.68.84c.22-.22.5-.33.84-.33s.62.11.84.33.33.5.33.84-.11.62-.33.84L2.52,18.36c-.22.22-.5.33-.84.33s-.62-.11-.84-.33Z"/>
  </g>
</svg>