<?xml version="1.0" encoding="UTF-8"?>
<svg id="Layer_1" data-name="Layer 1" xmlns="http://www.w3.org/2000/svg" viewBox="0 0 22 22">
  <defs>
    <style>
      .cls-1 {
        fill: #fff;
      }
    </style>
  </defs>
  <path class="cls-1" d="m12.71,3.96c.1-.1.16-.24.16-.39s-.06-.29-.16-.39l-2.33-2.33c-.1-.1-.24-.16-.39-.15-.14,0-.28.06-.38.16-.1.1-.16.24-.16.38,0,.14.05.28.15.39l1.1,1.1c-1.69.09-3.31.71-4.64,1.75-1.33,1.05-2.31,2.48-2.8,4.1-.49,1.62-.47,3.35.06,4.96.53,1.61,1.54,3.02,2.9,4.03.12.09.26.13.41.1.14-.02.27-.1.36-.21.09-.12.13-.26.1-.41-.02-.14-.1-.27-.21-.36-1.31-.98-2.24-2.38-2.65-3.96-.4-1.58-.25-3.26.43-4.74.68-1.49,1.85-2.69,3.31-3.42s3.13-.93,4.73-.58l.02-.02Zm-3.11,14l.02-.02c.45.1.91.15,1.39.16h0s.05,0,.08,0c1.51.02,2.98-.45,4.21-1.32,1.23-.87,2.15-2.11,2.64-3.54.48-1.43.5-2.97.05-4.41-.45-1.44-1.34-2.7-2.55-3.6-.06-.04-.11-.1-.14-.16-.04-.06-.06-.13-.07-.2-.01-.07,0-.14.01-.21.02-.07.05-.14.09-.19.04-.06.1-.11.16-.14.06-.04.13-.06.2-.07.07-.01.14,0,.21.01.07.02.14.05.19.09,1.36,1.01,2.37,2.42,2.9,4.03.53,1.61.55,3.34.06,4.96-.49,1.62-1.47,3.05-2.8,4.1-1.33,1.05-2.95,1.66-4.64,1.75l1.1,1.1c.05.05.09.11.12.18.03.07.04.14.04.21,0,.07-.01.15-.04.21-.03.07-.07.13-.12.18-.05.05-.11.09-.18.12-.07.03-.14.04-.21.04-.07,0-.15-.02-.21-.04-.07-.03-.13-.07-.18-.12l-2.33-2.33c-.05-.05-.09-.11-.12-.18-.03-.07-.04-.14-.04-.21s.01-.14.04-.21c.03-.07.07-.13.12-.18Zm4.14-9.04c.05.05.09.11.12.18.03.07.04.14.04.21s-.01.14-.04.21c-.03.07-.07.13-.12.18l-3.3,3.3c-.05.05-.11.09-.18.12-.07.03-.14.04-.21.04s-.14-.01-.21-.04c-.07-.03-.13-.07-.18-.12l-1.65-1.65c-.1-.1-.16-.24-.16-.39s.06-.29.16-.39c.1-.1.24-.16.39-.16s.29.06.39.16l1.26,1.26,2.91-2.91c.05-.05.11-.09.18-.12.07-.03.14-.04.21-.04s.14.01.21.04c.07.03.13.07.18.12Zm-8.09,2.04c0-1.46.58-2.86,1.61-3.89,1.03-1.03,2.43-1.61,3.89-1.61s2.86.58,3.89,1.61c1.03,1.03,1.61,2.43,1.61,3.89s-.58,2.86-1.61,3.89c-1.03,1.03-2.43,1.61-3.89,1.61s-2.86-.58-3.89-1.61c-1.03-1.03-1.61-2.43-1.61-3.89Zm5.5-4.4c-1.17,0-2.29.46-3.11,1.29-.83.83-1.29,1.94-1.29,3.11s.46,2.29,1.29,3.11c.83.83,1.94,1.29,3.11,1.29s2.29-.46,3.11-1.29c.83-.83,1.29-1.94,1.29-3.11s-.46-2.29-1.29-3.11-1.94-1.29-3.11-1.29Z"/>
</svg>