<?xml version="1.0" encoding="UTF-8"?>
<svg id="Layer_1" data-name="Layer 1" xmlns="http://www.w3.org/2000/svg" viewBox="0 0 11.8 11.27">
  <defs>
    <style>
      .cls-1 {
        fill: #fec010;
      }
    </style>
  </defs>
  <path class="cls-1" d="m11.42,3.97l-3.54-.51L6.3.25c-.04-.09-.11-.16-.2-.2-.22-.11-.49-.02-.6.2l-1.58,3.21L.38,3.97c-.1.01-.19.06-.25.13C.04,4.18,0,4.3,0,4.41c0,.12.05.23.13.31l2.56,2.49-.6,3.52c-.01.08,0,.17.03.24.03.08.08.14.15.19.07.05.15.08.23.08.08,0,.17-.01.24-.05l3.16-1.66,3.16,1.66c.09.05.19.06.28.04.24-.04.41-.27.36-.51l-.6-3.52,2.56-2.49c.07-.07.12-.16.13-.25.04-.24-.13-.47-.38-.51Z"/>
</svg>