<?xml version="1.0" encoding="UTF-8"?>
<svg id="Layer_1" data-name="Layer 1" xmlns="http://www.w3.org/2000/svg" xmlns:xlink="http://www.w3.org/1999/xlink" viewBox="0 0 16 16">
  <defs>
    <style>
      .cls-1 {
        clip-path: url(#clippath);
      }

      .cls-2 {
        fill: none;
      }

      .cls-3 {
        fill: #5bb599;
      }
    </style>
    <clipPath id="clippath">
      <rect class="cls-2" width="16" height="16"/>
    </clipPath>
  </defs>
  <g class="cls-1">
    <path class="cls-3" d="m15.64,6.99l-1.09-1.26c-.21-.24-.38-.69-.38-1.01v-1.36c0-.85-.7-1.54-1.54-1.54h-1.36c-.31,0-.77-.17-1.01-.38l-1.26-1.09c-.55-.47-1.46-.47-2.02,0l-1.26,1.1c-.24.2-.7.37-1.01.37h-1.38c-.85,0-1.54.7-1.54,1.54v1.37c0,.31-.17.76-.37,1l-1.08,1.27c-.46.55-.46,1.45,0,2l1.08,1.27c.2.24.37.69.37,1v1.37c0,.85.7,1.54,1.54,1.54h1.38c.31,0,.77.17,1.01.38l1.26,1.09c.55.47,1.46.47,2.02,0l1.26-1.09c.24-.21.69-.38,1.01-.38h1.36c.85,0,1.54-.7,1.54-1.54v-1.36c0-.31.17-.77.38-1.01l1.09-1.26c.46-.55.46-1.46,0-2.02Zm-4.32-.5l-3.86,3.86c-.11.11-.26.18-.42.18s-.31-.06-.42-.18l-1.94-1.94c-.23-.23-.23-.62,0-.85.23-.23.62-.23.85,0l1.51,1.51,3.44-3.44c.23-.23.62-.23.85,0,.23.23.23.62,0,.85Z"/>
  </g>
</svg>