<?xml version="1.0" encoding="UTF-8"?>
<svg id="Layer_1" data-name="Layer 1" xmlns="http://www.w3.org/2000/svg" xmlns:xlink="http://www.w3.org/1999/xlink" viewBox="0 0 24 14">
  <defs>
    <style>
      .cls-1 {
        fill: #fff;
      }

      .cls-2 {
        fill: #2d6fb7;
      }

      .cls-3 {
        isolation: isolate;
        opacity: .07;
      }

      .cls-4 {
        clip-path: url(#clippath);
      }

      .cls-5 {
        fill: none;
      }
    </style>
    <clipPath id="clippath">
      <rect class="cls-5" width="24" height="14"/>
    </clipPath>
  </defs>
  <g class="cls-4">
    <g>
      <path class="cls-3" d="m22.11,0H1.89C.82,0,0,.76,0,1.75v10.5c0,.99.88,1.75,1.89,1.75h20.21c1.07,0,1.89-.76,1.89-1.75V1.75c0-.99-.88-1.75-1.89-1.75Z"/>
      <path class="cls-2" d="m22.11.58c.69,0,1.26.52,1.26,1.17v10.5c0,.64-.57,1.17-1.26,1.17H1.89c-.69,0-1.26-.53-1.26-1.17V1.75c0-.64.57-1.17,1.26-1.17h20.21Z"/>
      <path class="cls-1" d="m5.67,5.99l.49,1.09h-.97l.49-1.09Zm10.15.05h-1.88v.48h1.85v.72h-1.85v.54h1.88v.43l1.31-1.31-1.31-1.37v.5Zm-8.88-1.37h2.52l.56,1.13.52-1.13h6.55l.68.69.7-.69h3.01l-2.22,2.25,2.2,2.23h-3.05l-.68-.69-.71.69H6.33l-.31-.69h-.71l-.31.69h-2.47l2.08-4.48h2.33Zm5.47.63h-1.41l-.95,2.06-1.03-2.06h-1.4v2.81l-1.3-2.81h-1.26l-1.5,3.22h.98l.31-.69h1.64l.31.69h1.72v-2.3l1.11,2.3h.75l1.1-2.29v2.29h.92l.02-3.22h0Zm5.9,1.61l1.6-1.61h-1.15l-1.01,1.01-.98-1.01h-3.72v3.22h3.67l1.02-1.01.98,1.01h1.18l-1.59-1.6h0Z"/>
    </g>
  </g>
</svg>