<?xml version="1.0" encoding="UTF-8"?>
<svg id="Layer_1" data-name="Layer 1" xmlns="http://www.w3.org/2000/svg" xmlns:xlink="http://www.w3.org/1999/xlink" viewBox="0 0 24 14">
  <defs>
    <style>
      .cls-1 {
        fill: #fff;
      }

      .cls-2 {
        fill: #e4e4e4;
      }

      .cls-3 {
        clip-path: url(#clippath);
      }

      .cls-4 {
        fill: none;
      }
    </style>
    <clipPath id="clippath">
      <rect class="cls-4" width="24" height="14"/>
    </clipPath>
  </defs>
  <g class="cls-3">
    <g>
      <path class="cls-2" d="m21.72,0H2.28c-.08,0-.16,0-.24,0-.07,0-.14,0-.2,0-.15,0-.3.01-.45.04-.15.02-.29.07-.42.13-.27.13-.49.33-.62.57-.07.12-.11.26-.14.39-.03.14-.04.27-.04.41,0,.06,0,.13,0,.19,0,.07,0,.15,0,.22v10.08c0,.07,0,.15,0,.22,0,.06,0,.13,0,.19,0,.14.01.28.04.41.03.14.07.27.14.39.07.12.16.24.26.33.11.1.23.18.36.24.14.06.27.1.42.13.15.02.3.03.45.04.07,0,.14,0,.2,0,.08,0,.16,0,.24,0h19.44c.08,0,.16,0,.24,0,.07,0,.14,0,.2,0,.15,0,.3-.01.45-.04.15-.02.29-.07.42-.13.27-.13.49-.33.62-.57.07-.13.11-.25.14-.39.03-.14.04-.27.04-.41,0-.06,0-.13,0-.19,0-.07,0-.15,0-.22V1.96c0-.07,0-.15,0-.22,0-.06,0-.13,0-.19,0-.14-.01-.28-.04-.41-.02-.14-.07-.27-.14-.39-.14-.25-.35-.45-.62-.57-.13-.06-.28-.11-.42-.13-.15-.02-.3-.03-.45-.04-.07,0-.14,0-.2,0-.08,0-.16,0-.24,0Z"/>
      <path class="cls-1" d="m21.72.47h.24c.06,0,.13,0,.19,0,.11,0,.25,0,.37.03.11.02.2.04.28.09.17.08.31.21.4.37.04.08.07.16.09.26.02.11.03.24.03.34,0,.06,0,.12,0,.18,0,.07,0,.15,0,.22v10.08c0,.07,0,.15,0,.22,0,.06,0,.12,0,.18,0,.11,0,.23-.03.34-.02.09-.05.18-.09.26-.09.16-.23.29-.4.37-.09.04-.18.07-.28.09-.13.02-.26.03-.37.03-.07,0-.13,0-.2,0-.08,0-.16,0-.24,0H2.28c-.08,0-.16,0-.24,0-.06,0-.13,0-.19,0-.11,0-.24,0-.37-.03-.1-.02-.19-.04-.28-.09-.09-.04-.16-.09-.23-.16-.07-.06-.12-.14-.17-.21-.04-.08-.08-.17-.09-.26-.02-.11-.03-.24-.03-.34,0-.06,0-.12,0-.18v-.18s0-10.18,0-10.18v-.18c0-.06,0-.12,0-.18,0-.1,0-.23.03-.34.02-.09.05-.18.09-.26.04-.08.1-.15.17-.21.07-.06.15-.12.23-.16.09-.04.18-.07.28-.09.12-.02.26-.03.37-.03.06,0,.13,0,.19,0h.24s19.44,0,19.44,0Z"/>
      <path d="m6.39,4.73c.2-.23.34-.54.3-.86-.29.01-.65.18-.86.41-.19.2-.35.52-.31.83.33.03.66-.15.87-.38Zm.3.44c-.48-.03-.89.25-1.12.25s-.58-.24-.96-.23c-.49,0-.95.26-1.2.67-.51.82-.14,2.03.36,2.7.24.33.54.69.92.68.36-.01.51-.22.95-.22s.57.22.96.21c.4,0,.65-.33.89-.66.28-.38.39-.74.4-.76,0,0-.77-.28-.78-1.09,0-.68.6-1,.63-1.02-.34-.47-.88-.52-1.07-.53"/>
      <path d="m11.46,4.24c1.04,0,1.77.66,1.77,1.63s-.74,1.63-1.79,1.63h-1.15v1.69h-.83v-4.96h2.01Zm-1.18,2.62h.96c.73,0,1.14-.36,1.14-.99s-.41-.98-1.13-.98h-.96v1.97Zm3.15,1.31c0-.64.52-1,1.49-1.05l1.04-.06v-.27c0-.4-.29-.62-.8-.62-.42,0-.73.2-.79.5h-.75c.02-.64.68-1.11,1.56-1.11.95,0,1.57.46,1.57,1.17v2.47h-.77v-.59h-.02c-.22.39-.7.63-1.23.63-.77,0-1.31-.43-1.31-1.06Zm2.53-.32v-.28l-.93.05c-.52.03-.79.21-.79.52s.28.5.72.5c.57,0,.99-.33.99-.8Zm1.51,2.67v-.59c.05,0,.18.01.25.01.37,0,.58-.14.7-.52l.07-.22-1.41-3.61h.87l.98,2.93h.02l.98-2.93h.85l-1.46,3.79c-.33.87-.72,1.15-1.53,1.15-.06,0-.27,0-.32-.02Z"/>
    </g>
  </g>
</svg>