<?xml version="1.0" encoding="UTF-8"?>
<svg id="Layer_1" data-name="Layer 1" xmlns="http://www.w3.org/2000/svg" xmlns:xlink="http://www.w3.org/1999/xlink" viewBox="0 0 24 14">
  <defs>
    <style>
      .cls-1 {
        fill: #fff;
      }

      .cls-2 {
        fill: #ea4435;
      }

      .cls-3 {
        fill: #547dbf;
      }

      .cls-4 {
        isolation: isolate;
        opacity: .07;
      }

      .cls-5 {
        clip-path: url(#clippath);
      }

      .cls-6 {
        fill: none;
      }

      .cls-7 {
        fill: #5f6469;
      }

      .cls-8 {
        fill: #33a852;
      }

      .cls-9 {
        fill: #fec010;
      }
    </style>
    <clipPath id="clippath">
      <rect class="cls-6" width="24" height="14"/>
    </clipPath>
  </defs>
  <g class="cls-5">
    <g>
      <path class="cls-4" d="m22.11,0H1.89C.82,0,0,.76,0,1.75v10.5c0,.99.88,1.75,1.89,1.75h20.21c1.07,0,1.89-.76,1.89-1.75V1.75c0-.99-.88-1.75-1.89-1.75Z"/>
      <path class="cls-1" d="m22.11.58c.69,0,1.26.52,1.26,1.17v10.5c0,.64-.57,1.17-1.26,1.17H1.89c-.69,0-1.26-.53-1.26-1.17V1.75c0-.64.57-1.17,1.26-1.17h20.21Z"/>
      <path class="cls-7" d="m11.43,6.99v1.87h-.64v-4.61h1.7c.2,0,.41.03.6.1.19.07.36.17.51.3.14.12.25.26.33.42.08.16.12.33.13.51,0,.17-.02.35-.09.51-.07.16-.17.31-.3.44l-.07.07c-.3.26-.69.4-1.1.39h-1.06Zm0-2.18v1.63h1.07c.24,0,.47-.08.63-.24.12-.11.2-.26.23-.42.03-.16.01-.32-.06-.46-.07-.15-.18-.27-.32-.36-.14-.09-.31-.13-.48-.13l-1.07-.02Zm4.1.79c.41-.02.81.11,1.12.36.28.25.43.6.41.96v1.94h-.61v-.45h-.03c-.11.17-.26.31-.45.4-.19.1-.39.14-.61.14-.35.01-.68-.1-.94-.31-.12-.09-.22-.21-.29-.34-.07-.13-.1-.28-.1-.43,0-.15.02-.3.09-.43.07-.14.17-.25.3-.35.31-.21.69-.31,1.07-.3.33-.01.65.05.94.19v-.12c0-.1-.02-.2-.07-.29-.05-.09-.11-.17-.2-.23-.17-.14-.39-.22-.62-.21-.17,0-.33.04-.48.11-.15.07-.27.18-.36.31l-.57-.33c.15-.2.36-.37.6-.47.24-.11.51-.16.78-.14Zm-.81,2.29c0,.08.02.15.05.22.04.07.09.13.16.17.14.1.32.16.5.15.27,0,.53-.1.72-.28.19-.17.3-.4.3-.64-.24-.16-.54-.24-.84-.22-.23,0-.46.05-.65.17-.08.05-.14.11-.18.18-.04.07-.07.16-.07.24Zm5.86-2.19l-2.14,4.54h-.66l.81-1.59-1.4-2.95h.7l1.02,2.27.99-2.27h.69Z"/>
      <path class="cls-3" d="m8.83,6.58c0-.18-.02-.36-.05-.54h-2.71v1.02h1.55c-.03.16-.1.32-.2.45-.1.14-.22.26-.37.35v.66h.92c.28-.25.5-.55.65-.89.15-.33.22-.69.2-1.06Z"/>
      <path class="cls-8" d="m6.08,9.17c.7.02,1.38-.21,1.9-.64l-.93-.66c-.22.13-.47.21-.74.24-.26.03-.53,0-.78-.08s-.48-.21-.66-.39c-.19-.17-.33-.38-.41-.62h-.95v.68c.24.44.6.81,1.05,1.07.45.26.97.4,1.5.4Z"/>
      <path class="cls-9" d="m4.47,7.03c-.12-.33-.12-.68,0-1.01v-.68h-.95c-.2.37-.31.78-.31,1.19s.11.82.31,1.19l.95-.68Z"/>
      <path class="cls-2" d="m6.08,4.92c.41,0,.8.14,1.1.4l.82-.75c-.52-.45-1.22-.7-1.94-.69-.53,0-1.05.14-1.49.4-.45.26-.81.62-1.05,1.06l.95.68c.11-.31.33-.59.61-.79.29-.2.64-.3,1-.31Z"/>
    </g>
  </g>
</svg>