<?xml version="1.0" encoding="UTF-8"?>
<svg id="Layer_1" data-name="Layer 1" xmlns="http://www.w3.org/2000/svg" xmlns:xlink="http://www.w3.org/1999/xlink" viewBox="0 0 24 14">
  <defs>
    <style>
      .cls-1 {
        fill: #fff;
      }

      .cls-2 {
        fill: #f16122;
      }

      .cls-3 {
        isolation: isolate;
        opacity: .07;
      }

      .cls-4 {
        fill: #e91d25;
      }

      .cls-5 {
        clip-path: url(#clippath);
      }

      .cls-6 {
        fill: none;
      }

      .cls-7 {
        fill: #fec010;
      }
    </style>
    <clipPath id="clippath">
      <rect class="cls-6" width="24" height="14"/>
    </clipPath>
  </defs>
  <g class="cls-5">
    <g>
      <path class="cls-3" d="m22.11,0H1.89C.82,0,0,.76,0,1.75v10.5c0,.99.88,1.75,1.89,1.75h20.21c1.07,0,1.89-.76,1.89-1.75V1.75c0-.99-.88-1.75-1.89-1.75Z"/>
      <path class="cls-1" d="m22.11.58c.69,0,1.26.52,1.26,1.17v10.5c0,.64-.57,1.17-1.26,1.17H1.89c-.69,0-1.26-.53-1.26-1.17V1.75c0-.64.57-1.17,1.26-1.17h20.21Z"/>
      <path class="cls-4" d="m9.47,11.08c2.44,0,4.42-1.83,4.42-4.08s-1.98-4.08-4.42-4.08-4.42,1.83-4.42,4.08,1.98,4.08,4.42,4.08Z"/>
      <path class="cls-7" d="m14.53,11.08c2.44,0,4.42-1.83,4.42-4.08s-1.98-4.08-4.42-4.08-4.42,1.83-4.42,4.08,1.98,4.08,4.42,4.08Z"/>
      <path class="cls-2" d="m13.89,7c0-1.4-.76-2.62-1.89-3.33-1.14.76-1.89,1.98-1.89,3.33s.76,2.63,1.89,3.33c1.14-.7,1.89-1.93,1.89-3.33Z"/>
    </g>
  </g>
</svg>