<?xml version="1.0" encoding="UTF-8"?>
<svg id="Layer_1" data-name="Layer 1" xmlns="http://www.w3.org/2000/svg" xmlns:xlink="http://www.w3.org/1999/xlink" viewBox="0 0 24 14">
  <defs>
    <style>
      .cls-1 {
        fill: #fff;
      }

      .cls-2 {
        isolation: isolate;
        opacity: .07;
      }

      .cls-3 {
        fill: #263b80;
      }

      .cls-4 {
        clip-path: url(#clippath);
      }

      .cls-5 {
        fill: none;
      }

      .cls-6 {
        fill: #3086c7;
      }

      .cls-7 {
        fill: #232c65;
      }
    </style>
    <clipPath id="clippath">
      <rect class="cls-5" width="24" height="14"/>
    </clipPath>
  </defs>
  <g class="cls-4">
    <g>
      <path class="cls-2" d="m22.11,0H1.89C.82,0,0,.76,0,1.75v10.5c0,.99.88,1.75,1.89,1.75h20.21c1.07,0,1.89-.76,1.89-1.75V1.75c0-.99-.88-1.75-1.89-1.75Z"/>
      <path class="cls-1" d="m22.11.58c.69,0,1.26.52,1.26,1.17v10.5c0,.64-.57,1.17-1.26,1.17H1.89c-.69,0-1.26-.53-1.26-1.17V1.75c0-.64.57-1.17,1.26-1.17h20.21Z"/>
      <path class="cls-3" d="m15.09,4.84c.13-.58,0-.99-.38-1.34-.38-.41-1.07-.58-1.96-.58h-2.59c-.19,0-.32.12-.38.29l-.95,5.89c0,.12.06.23.19.23h1.71l.25-1.98,1.14-1.28,2.97-1.22Z"/>
      <path class="cls-6" d="m15.09,4.84l-.13.12c-.32,1.63-1.39,2.22-2.91,2.22h-.69c-.19,0-.32.12-.38.29l-.38,2.27-.13.58c0,.12.06.23.19.23h1.33c.19,0,.32-.12.32-.23v-.06l.25-1.4v-.06c0-.12.19-.23.32-.23h.19c1.33,0,2.34-.47,2.59-1.87.13-.58.06-1.05-.25-1.4-.06-.29-.19-.41-.32-.47Z"/>
      <path class="cls-7" d="m14.72,4.72c-.06-.06-.13-.06-.19-.06s-.13,0-.19-.06c-.19-.06-.44-.06-.69-.06h-1.89c-.06,0-.13,0-.13.06-.13.06-.19.12-.19.23l-.44,2.57v.06c0-.18.19-.29.38-.29h.82c1.58,0,2.59-.58,2.91-2.22v-.12c-.06-.06-.19-.12-.32-.12h-.06Z"/>
    </g>
  </g>
</svg>