<?xml version="1.0" encoding="UTF-8"?>
<svg id="Layer_1" data-name="Layer 1" xmlns="http://www.w3.org/2000/svg" xmlns:xlink="http://www.w3.org/1999/xlink" viewBox="0 0 24 14">
  <defs>
    <style>
      .cls-1 {
        fill: #fff;
      }

      .cls-2 {
        fill: #5856a5;
      }

      .cls-3 {
        isolation: isolate;
        opacity: .07;
      }

      .cls-4 {
        clip-path: url(#clippath);
      }

      .cls-5 {
        fill: none;
      }
    </style>
    <clipPath id="clippath">
      <rect class="cls-5" width="24" height="14"/>
    </clipPath>
  </defs>
  <g class="cls-4">
    <g>
      <path class="cls-3" d="m22.11,0H1.89C.82,0,0,.76,0,1.75v10.5c0,.99.88,1.75,1.89,1.75h20.21c1.07,0,1.89-.76,1.89-1.75V1.75c0-.99-.88-1.75-1.89-1.75Z"/>
      <path class="cls-2" d="m22.11.58c.69,0,1.26.52,1.26,1.17v10.5c0,.64-.57,1.17-1.26,1.17H1.89c-.69,0-1.26-.53-1.26-1.17V1.75c0-.64.57-1.17,1.26-1.17h20.21Z"/>
      <path class="cls-1" d="m13.5,5.67c0,.97-.74,1.67-1.78,1.67h-.98s-.03,0-.05.01c-.01,0-.02.02-.03.03,0,0,0,.02,0,.03v1.28s0,.02,0,.03c0,0-.01.02-.02.02,0,0-.02.01-.03.02-.01,0-.02,0-.03,0h-.68s-.04,0-.06-.02c-.02-.01-.02-.03-.02-.05v-4.61s0-.03.01-.04c0-.01.02-.02.04-.03.01,0,.02,0,.03,0h1.83c1.03,0,1.78.69,1.78,1.67h0Zm-.85,0c0-.56-.42-.97-.98-.97h-.93s-.02,0-.03,0c-.01,0-.02,0-.03.02,0,0-.01.02-.02.02,0,0,0,.02,0,.03v1.78s0,.02,0,.03c0,0,.01.02.02.02,0,0,.02.01.03.02,0,0,.02,0,.03,0h.93c.56,0,.98-.41.98-.96Zm1.06,2.21c0-.15.03-.3.1-.43.07-.13.18-.25.31-.34.27-.18.68-.28,1.3-.3l.65-.02v-.18c0-.35-.26-.5-.67-.5s-.68.13-.74.36c0,.02-.02.03-.03.04-.01,0-.03.01-.05.01h-.65s-.04,0-.05-.01c-.01,0-.03-.02-.03-.04,0-.01,0-.02,0-.03.1-.52.57-.92,1.58-.92,1.07,0,1.45.46,1.45,1.33v1.85s0,.02,0,.03c0,0-.01.02-.02.02,0,0-.02.01-.03.02-.01,0-.02,0-.03,0h-.65s-.04,0-.06-.02c-.02-.01-.02-.03-.02-.05v-.14s0-.02-.01-.03c0,0-.02-.02-.03-.02-.01,0-.02,0-.04,0s-.02,0-.03.02c-.2.19-.51.34-1.01.34-.74,0-1.23-.35-1.23-.97Zm2.36-.4v-.14l-.85.04c-.45.02-.7.19-.7.48,0,.26.24.4.65.4.56,0,.9-.28.9-.78Zm1.46,2.68v-.54s0-.02,0-.03c0-.01.01-.02.02-.03,0,0,.02-.01.03-.01.01,0,.02,0,.04,0,.1.02.2.03.3.03.17,0,.35-.04.49-.13.14-.09.25-.23.3-.38l.04-.12s0-.03,0-.05l-1.35-3.19s0-.04,0-.05c0-.02.02-.03.04-.04.01,0,.03,0,.04,0h.66s.03,0,.05.01c.01,0,.02.02.03.04l.92,2.25s.02.03.03.04c.01,0,.03.01.05.01.02,0,.03,0,.05-.01.01,0,.02-.02.03-.04l.8-2.24s.02-.03.03-.04c.01,0,.03-.01.05-.01h.68s.04,0,.06.02c.02.01.03.03.03.05,0,.01,0,.03,0,.04l-1.45,3.54c-.33.82-.91,1.03-1.53,1.03-.12,0-.24,0-.35-.04-.02,0-.04-.02-.05-.03-.01-.02-.02-.03-.02-.05h0ZM5.41,3.73c-.86,0-1.69.29-2.33.83-.03.02-.04.05-.05.09,0,.03,0,.07.03.09l.39.49s.03.03.05.04c.02,0,.04.02.06.02.02,0,.04,0,.06,0,.02,0,.04-.02.05-.03.23-.21.5-.37.79-.48.3-.11.61-.17.94-.16,1.34,0,2.04.92,2.04,1.84,0,.99-.73,1.69-1.79,1.7-.82,0-1.43-.5-1.43-1.15,0-.17.04-.33.12-.48s.19-.28.33-.38c.03-.02.05-.06.05-.09,0-.04,0-.07-.03-.1l-.41-.48s-.03-.03-.05-.04c-.02,0-.04-.01-.06-.02-.02,0-.04,0-.06,0-.02,0-.04.01-.05.03-.25.19-.45.42-.59.69-.14.27-.21.56-.21.86,0,1.13,1.05,2.01,2.38,2.02h.02c1.59-.02,2.74-1.1,2.74-2.58,0-1.31-1.05-2.71-3-2.71Z"/>
    </g>
  </g>
</svg>