<?xml version="1.0" encoding="UTF-8"?>
<svg id="Layer_1" data-name="Layer 1" xmlns="http://www.w3.org/2000/svg" viewBox="0 0 24 14">
  <defs>
    <style>
      .cls-1 {
        fill: #fff;
      }

      .cls-2 {
        fill: #2b3481;
      }

      .cls-3 {
        isolation: isolate;
        opacity: .07;
      }
    </style>
  </defs>
  <path class="cls-3" d="m22.11,0H1.89C.82,0,0,.76,0,1.75v10.5c0,.99.88,1.75,1.89,1.75h20.21c1.07,0,1.89-.76,1.89-1.75V1.75c0-.99-.88-1.75-1.89-1.75Z"/>
  <path class="cls-1" d="m22.11.58c.69,0,1.26.52,1.26,1.17v10.5c0,.64-.57,1.17-1.26,1.17H1.89c-.69,0-1.26-.53-1.26-1.17V1.75c0-.64.57-1.17,1.26-1.17h20.21Z"/>
  <path class="cls-2" d="m18.44,5.89h-.19c-.25.58-.44.88-.63,1.75h1.2c-.19-.88-.19-1.28-.38-1.75Zm1.83,3.44h-1.07q-.06,0-.13-.06l-.13-.52-.06-.12h-1.52c-.06,0-.13,0-.13.12l-.19.52c0,.06-.06.06-.06.06h-1.33l.13-.29,1.83-3.97c0-.29.19-.41.51-.41h.95c.06,0,.13,0,.13.12l.88,3.79c.06.23.13.41.13.64q.06.06.06.12Zm-8.46-.18l.25-1.05c.06,0,.13.06.13.06.44.18.88.29,1.33.23.13,0,.32-.06.44-.12.32-.12.32-.41.06-.64-.13-.12-.32-.17-.51-.29-.25-.12-.51-.23-.69-.41-.76-.58-.51-1.4-.06-1.81.38-.23.57-.47,1.07-.47.76,0,1.58,0,1.96.12h.06c-.06.35-.13.64-.25.99-.32-.12-.63-.23-.95-.23-.19,0-.38,0-.57.06-.13,0-.19.06-.25.12-.13.12-.13.29,0,.41l.32.23c.25.12.51.23.69.35.32.17.63.47.69.82.13.53-.06.99-.57,1.34-.32.23-.44.35-.88.35-.88,0-1.58.06-2.15-.12q-.06.12-.13.06Zm-2.21.18q.06-.41.13-.58c.32-1.28.63-2.62.88-3.91.06-.12.06-.18.19-.18h1.14c-.13.7-.25,1.22-.44,1.87-.19.88-.38,1.75-.63,2.62,0,.12-.06.12-.19.12M3.73,4.78c0-.06.13-.12.19-.12h2.15c.32,0,.57.18.63.47l.57,2.57q0,.06.06.12c0-.06.06-.06.06-.06l1.33-2.97c-.06-.06,0-.12.06-.12h1.33q0,.06-.06.12l-1.96,4.26c-.06.12-.06.18-.13.23-.06.06-.19,0-.32,0h-.95c-.06,0-.13,0-.13-.12l-1.01-3.62c-.13-.12-.32-.29-.57-.35-.38-.18-1.07-.29-1.2-.29l-.06-.12Z"/>
</svg>